<svg width="24" height="24" viewBox="0 0 24 24" fill="none" xmlns="http://www.w3.org/2000/svg">
<path d="M21.5031 19.7912L20.4314 6.28609C20.3649 5.41595 19.6287 4.73462 18.7562 4.73462H16.6392V7.87135C16.6392 8.25981 16.3247 8.57424 15.9363 8.57424C15.5483 8.57424 15.2334 8.25981 15.2334 7.87135V4.73462H8.76694V7.87135C8.76694 8.25981 8.45203 8.57424 8.06405 8.57424C7.6756 8.57424 7.36116 8.25981 7.36116 7.87135V4.73462H5.2441C4.37161 4.73462 3.63544 5.41595 3.56893 6.28421L2.4968 19.7931C2.41388 20.875 2.78921 21.9519 3.52627 22.7475C4.26338 23.5431 5.30832 24 6.3931 24H17.6073C18.6921 24 19.737 23.5431 20.4741 22.7475C21.2112 21.9518 21.5865 20.875 21.5031 19.7912Z" fill="#030303"/>
<path d="M12.0002 0C9.44217 0 7.36121 2.08144 7.36121 4.63945V4.73456H8.76699V4.63945C8.76699 2.85647 10.2173 1.40573 12.0002 1.40573C13.7832 1.40573 15.2335 2.85647 15.2335 4.63945V4.73456H16.6392V4.63945C16.6392 2.08144 14.5582 0 12.0002 0Z" fill="#030303"/>
</svg>
