<svg width="16" height="16" viewBox="0 0 16 16" fill="none" xmlns="http://www.w3.org/2000/svg">
<path d="M11.3266 14.8781H4.71719C4.37187 14.8781 4.08594 14.6109 4.0625 14.2656L3.49531 5.83437C3.47031 5.45469 3.77031 5.13438 4.15 5.13438H11.8938C12.2734 5.13438 12.5734 5.45625 12.5484 5.83437L11.9812 14.2656C11.9578 14.6109 11.6719 14.8781 11.3266 14.8781ZM13.1953 3.90469H2.92969C2.92031 3.90469 2.91406 3.89844 2.91406 3.88906V2.09375C2.91406 2.08437 2.92031 2.07812 2.92969 2.07812H13.1953C13.2047 2.07812 13.2109 2.08437 13.2109 2.09375V3.8875C13.2109 3.89688 13.2047 3.90469 13.1953 3.90469Z" fill="black"/>
<path d="M10.7953 2.96091H5.30939C5.30001 2.96091 5.29376 2.95466 5.29376 2.94529V0.904663C5.29376 0.895288 5.30001 0.889038 5.30939 0.889038H10.7953C10.8047 0.889038 10.8109 0.895288 10.8109 0.904663V2.94529C10.8109 2.9531 10.8047 2.96091 10.7953 2.96091Z" fill="black"/>
</svg>
