<svg width="16" height="16" viewBox="0 0 16 16" fill="none" xmlns="http://www.w3.org/2000/svg">
<g clip-path="url(#clip0_2006_10612)">
<path d="M9.88087 2.68213L1.07744 11.495C1.03315 11.5395 1.00117 11.5956 0.985939 11.656L0.0101637 15.5764C-0.0190245 15.6945 0.0156207 15.82 0.101663 15.9061C0.166765 15.9713 0.255472 16.0073 0.346209 16.0073C0.374002 16.0073 0.402428 16.0039 0.430094 15.9969L4.34665 15.02C4.40769 15.0048 4.46315 14.9729 4.50744 14.9286L13.3116 6.11633L9.88087 2.68213Z" fill="black"/>
<path d="M15.4926 1.48047L14.5126 0.49953C13.8577 -0.156085 12.7162 -0.15545 12.062 0.49953L10.8616 1.70113L14.2922 5.1352L15.4926 3.9336C15.8198 3.60624 16 3.17052 16 2.7071C16 2.24369 15.8198 1.80796 15.4926 1.48047Z" fill="black"/>
</g>
<defs>
<clipPath id="clip0_2006_10612">
<rect width="16" height="16" fill="white"/>
</clipPath>
</defs>
</svg>
