<svg width="16" height="16" viewBox="0 0 16 16" fill="none" xmlns="http://www.w3.org/2000/svg">
<path d="M13.3475 2H2.65249C2.38099 2.00021 2.11538 2.07923 1.88791 2.22746C1.66043 2.37569 1.48087 2.58676 1.37102 2.83505C1.26117 3.08334 1.22575 3.35818 1.26906 3.62621C1.31236 3.89424 1.43254 4.14394 1.615 4.345L6.24999 9.4425V14.25C6.25004 14.344 6.27656 14.436 6.32653 14.5156C6.37649 14.5952 6.44788 14.6591 6.53249 14.7C6.60012 14.7333 6.67459 14.7505 6.74999 14.75C6.86364 14.7499 6.97386 14.7111 7.06249 14.64L7.99999 13.89L9.56249 12.64C9.62096 12.5932 9.66817 12.5338 9.70062 12.4663C9.73307 12.3988 9.74995 12.3249 9.74999 12.25V9.4425L14.385 4.345C14.5675 4.14394 14.6876 3.89424 14.7309 3.62621C14.7742 3.35818 14.7388 3.08334 14.629 2.83505C14.5191 2.58676 14.3396 2.37569 14.1121 2.22746C13.8846 2.07923 13.619 2.00021 13.3475 2Z" fill="#030303"/>
</svg>
