<svg width="16" height="16" viewBox="0 0 16 16" fill="none" xmlns="http://www.w3.org/2000/svg">
<g clip-path="url(#clip0_1452_2983)">
<path d="M4.25834 10.3277C3.471 9.25248 3.00006 7.93182 3.00006 6.50011C3.00006 2.91614 5.91607 0.00012207 9.50004 0.00012207C13.084 0.00012207 16 2.91614 16 6.50011C16 10.0841 13.084 13.0001 9.50001 13.0001C8.06831 13.0001 6.74752 12.5291 5.67233 11.7417L1.41405 16L0 14.586C0 14.5859 4.25834 10.3277 4.25834 10.3277ZM9.50001 11.0001C11.9815 11.0001 14 8.98155 14 6.50011C14 4.01867 11.9815 2.00013 9.50001 2.00013C7.01857 2.00013 5.00003 4.01867 5.00003 6.50011C5.00003 8.98155 7.0186 11.0001 9.50001 11.0001Z" fill="#030303"/>
</g>
<defs>
<clipPath id="clip0_1452_2983">
<rect width="16" height="16" fill="white"/>
</clipPath>
</defs>
</svg>
