<svg width="8" height="12" viewBox="0 0 8 12" fill="none" xmlns="http://www.w3.org/2000/svg">
<path d="M7.00002 7H5.50002V1C5.50002 0.723633 5.27614 0.5 5.00002 0.5H3.00002C2.72389 0.5 2.50002 0.723633 2.50002 1V7H1.00002C0.804704 7 0.627458 7.11377 0.545671 7.29102C0.464128 7.46826 0.493425 7.67725 0.620378 7.8252L3.62038 11.3252C3.71535 11.436 3.85402 11.5 4.00002 11.5C4.14601 11.5 4.28468 11.436 4.37966 11.3252L7.37966 7.8252C7.50661 7.67725 7.53591 7.46826 7.45436 7.29102C7.37258 7.11377 7.19533 7 7.00002 7Z" fill="#030303"/>
</svg>
