<svg width="16" height="16" viewBox="0 0 16 16" fill="none" xmlns="http://www.w3.org/2000/svg">
<path d="M7.00002 9H5.50002V3C5.50002 2.72363 5.27614 2.5 5.00002 2.5H3.00002C2.72389 2.5 2.50002 2.72363 2.50002 3V9H1.00002C0.804704 9 0.627458 9.11377 0.545671 9.29102C0.464128 9.46826 0.493425 9.67725 0.620378 9.8252L3.62038 13.3252C3.71535 13.436 3.85402 13.5 4.00002 13.5C4.14601 13.5 4.28468 13.436 4.37966 13.3252L7.37966 9.8252C7.50661 9.67725 7.53591 9.46826 7.45436 9.29102C7.37258 9.11377 7.19533 9 7.00002 9Z" fill="#030303"/>
<path d="M15.51 6.50012C15.51 6.77844 15.293 7.00793 15.0049 7.00012H15H13.5V13.0001C13.5 13.2765 13.2761 13.5001 13 13.5001H11C10.7239 13.5001 10.5 13.2765 10.5 13.0001V7.00012H9.00002C8.8047 7.00012 8.62746 6.88635 8.54567 6.70911C8.46413 6.53186 8.49342 6.32288 8.62038 6.17493L11.6204 2.67493C11.8103 2.45325 12.1897 2.45325 12.3797 2.67493L15.3274 6.11389C15.439 6.2052 15.51 6.34436 15.51 6.50012Z" fill="#A2A2A2"/>
</svg>
