<svg width="24" height="24" viewBox="0 0 24 24" fill="none" xmlns="http://www.w3.org/2000/svg">
<path d="M22.3796 2.13224L1.1204 10.2793C-0.330573 10.8577 -0.321968 11.6618 0.855931 12.0203L6.15805 13.6646L8.18676 19.8445C8.4334 20.5209 8.31182 20.7891 9.02669 20.7891C9.57837 20.7891 9.82311 20.5392 10.1304 20.241C10.3258 20.051 11.4859 18.9303 12.7813 17.679L18.2965 21.7277C19.3113 22.284 20.0441 21.9958 20.2969 20.7912L23.9172 3.84059C24.2878 2.36411 23.3506 1.69439 22.3796 2.13224ZM6.99016 13.2868L18.9412 5.79532C19.5378 5.43583 20.0848 5.6291 19.6357 6.02522L9.40248 15.1988L9.00403 19.4212L6.99016 13.2868Z" fill="#030303"/>
</svg>
