<svg width="24" height="24" viewBox="0 0 24 24" fill="none" xmlns="http://www.w3.org/2000/svg">
<path fill-rule="evenodd" clip-rule="evenodd" d="M11.7426 18.6403H13.177C13.177 18.6403 13.6102 18.5924 13.8316 18.354C14.0354 18.1349 14.0289 17.7236 14.0289 17.7236C14.0289 17.7236 14.0006 15.798 14.8941 15.5146C15.7749 15.2352 16.9057 17.3755 18.1043 18.1985C19.0108 18.8212 19.6996 18.6849 19.6996 18.6849L22.9047 18.6403C22.9047 18.6403 24.5809 18.5367 23.7861 17.2179C23.7211 17.1102 23.3229 16.2425 21.4031 14.4597C19.393 12.5933 19.6624 12.8954 22.0834 9.66749C23.5576 7.70165 24.1472 6.50185 23.9628 5.98767C23.7873 5.498 22.7029 5.62715 22.7029 5.62715L19.0941 5.64973C19.0941 5.64973 18.8267 5.61318 18.6282 5.73187C18.4344 5.84812 18.3099 6.11926 18.3099 6.11926C18.3099 6.11926 17.7382 7.64044 16.9767 8.93413C15.3701 11.6637 14.7274 11.8082 14.4648 11.6383C13.8537 11.2433 14.0066 10.0517 14.0066 9.2047C14.0066 6.55926 14.4076 5.45614 13.2253 5.17074C12.833 5.07599 12.5441 5.01313 11.5408 5.00303C10.2533 4.98991 9.16342 5.00712 8.54651 5.30936C8.13599 5.51097 7.81911 5.95871 8.01234 5.98466C8.25083 6.01648 8.79088 6.13023 9.07716 6.5202C9.44699 7.02363 9.43402 8.15383 9.43402 8.15383C9.43402 8.15383 9.64665 11.2679 8.93782 11.6545C8.45129 11.9199 7.78408 11.3783 6.35129 8.90174C5.61745 7.63335 5.06322 6.23078 5.06322 6.23078C5.06322 6.23078 4.95662 5.96903 4.76583 5.82863C4.53457 5.65855 4.21132 5.60479 4.21132 5.60479L0.78205 5.62701C0.78205 5.62701 0.267228 5.64163 0.0785188 5.86561C-0.0899161 6.06493 0.0650501 6.47676 0.0650501 6.47676C0.0650501 6.47676 2.74959 12.7605 5.78947 15.927C8.57752 18.8311 11.7426 18.6403 11.7426 18.6403Z" fill="#030303"/>
</svg>
