<svg width="24" height="24" viewBox="0 0 24 24" fill="none" xmlns="http://www.w3.org/2000/svg">
<g clip-path="url(#clip0_24_7725)">
<path d="M18.1349 14.2857L18.1352 14.2862C18.1658 14.3372 18.1798 14.4151 18.1861 14.4958C18.1929 14.582 18.1919 14.6896 18.1812 14.8124C18.1598 15.0583 18.0991 15.3717 17.9783 15.7083L17.9782 15.7084C17.8482 16.0689 17.4758 16.4063 17.0879 16.6552C16.6986 16.905 16.2637 17.0846 15.9811 17.1102L15.9721 17.0106L15.9811 17.1102C15.8993 17.1175 15.8365 17.1326 15.765 17.1498C15.729 17.1585 15.6908 17.1677 15.6469 17.1767C15.5199 17.2027 15.3711 17.2196 15.1479 17.1981C14.7079 17.1557 13.9766 16.9635 12.5357 16.4006L12.5357 16.4006C9.83933 15.3467 8.06546 12.7303 7.71119 12.2078C7.68292 12.1661 7.66369 12.1378 7.65375 12.1246L18.1349 14.2857ZM18.1349 14.2857C18.0845 14.2029 17.9986 14.1455 17.9053 14.0947C17.8475 14.0632 17.7774 14.0295 17.7001 13.9924C17.6528 13.9697 17.6028 13.9457 17.5512 13.9201L17.5511 13.92C17.4089 13.8496 16.9894 13.6442 16.5729 13.4447C16.1596 13.2468 15.7405 13.0503 15.6048 13.0014L15.6048 13.0014C15.4779 12.9557 15.3441 12.9111 15.2141 12.9257C15.073 12.9416 14.9553 13.0233 14.8501 13.1803C14.666 13.4551 14.1278 14.0826 13.9611 14.2715L13.961 14.2716C13.8879 14.3546 13.826 14.3891 13.7615 14.3969C13.6928 14.4052 13.602 14.3858 13.4669 14.3187L13.4669 14.3187C13.4183 14.2946 13.3533 14.2666 13.2736 14.2323C12.8728 14.0596 12.1026 13.7277 11.2105 12.9385C10.3804 12.2041 9.81811 11.2952 9.65483 11.0165L9.65475 11.0164C9.58418 10.8964 9.5878 10.8196 9.60915 10.7627C9.63417 10.696 9.68943 10.6378 9.76306 10.5652L9.76316 10.5651C9.85109 10.478 9.95421 10.3536 10.0535 10.2339C10.1018 10.1756 10.1492 10.1184 10.1935 10.0671L10.1935 10.0671C10.3234 9.91656 10.381 9.79944 10.4525 9.6538C10.4646 9.62933 10.477 9.60406 10.4902 9.57769M18.1349 14.2857L7.65365 12.1244L7.65328 12.124C7.5803 12.0277 7.28765 11.6418 7.01283 11.1048C6.73815 10.568 6.47679 9.87164 6.47679 9.1574C6.47679 7.82345 7.14091 7.12002 7.43886 6.80443C7.45917 6.78292 7.47777 6.76321 7.49435 6.74523L7.49442 6.74516C7.77636 6.43993 8.11202 6.36147 8.32353 6.36147C8.42163 6.36147 8.51911 6.36758 8.61027 6.37345L8.61785 6.37394C8.70735 6.3797 8.78989 6.38501 8.86651 6.38501C8.88302 6.38501 8.90094 6.38386 8.92407 6.38238L8.92533 6.3823C8.94792 6.38084 8.9746 6.37917 9.00276 6.37917C9.06012 6.37918 9.1271 6.38607 9.1982 6.41662C9.34191 6.47838 9.47364 6.62364 9.59591 6.91506L9.59592 6.91509C9.67159 7.09562 9.78131 7.36056 9.89771 7.64164C9.96289 7.79905 10.0302 7.96151 10.0947 8.11705C10.2761 8.5539 10.4333 8.92929 10.4666 8.99517L10.4666 8.99531C10.5437 9.14858 10.6056 9.34904 10.4902 9.57769M10.4902 9.57769C10.4902 9.57773 10.4902 9.57777 10.4901 9.57781L10.4009 9.53274M10.4902 9.57769C10.4902 9.57765 10.4902 9.57761 10.4903 9.57756L10.4009 9.53274M10.4009 9.53274C10.3871 9.56015 10.3744 9.58605 10.3622 9.61081C10.2909 9.75569 10.2389 9.86145 10.1178 10.0017L7.73296 12.0635C7.58917 11.8739 6.57679 10.539 6.57679 9.1574C6.57679 7.86347 7.21731 7.18485 7.51226 6.87235C7.53254 6.85087 7.55118 6.83112 7.56788 6.81301C7.82761 6.53183 8.13468 6.46147 8.32353 6.46147C8.4211 6.46147 8.51866 6.46775 8.61297 6.47383C8.70121 6.47951 8.7866 6.48501 8.86651 6.48501C8.88631 6.48501 8.90711 6.48368 8.9288 6.48228C9.08845 6.472 9.29598 6.45864 9.50369 6.95375C9.57928 7.13409 9.68883 7.39862 9.80515 7.6795C10.0519 8.27534 10.3291 8.94477 10.3773 9.04023C10.4482 9.18121 10.4956 9.3452 10.4009 9.53274ZM0.13503 23.738L0.0715341 23.9253L0.260021 23.8654L6.61737 21.8452C8.27912 22.7493 10.1858 23.2638 12.214 23.2638C18.6512 23.2638 23.8704 18.0858 23.8704 11.6967C23.8704 5.30748 18.6509 0.129492 12.2143 0.129492C5.77687 0.129492 0.557396 5.30748 0.557396 11.6967C0.557396 13.8651 1.15945 15.8951 2.20576 17.6297L0.13503 23.738ZM4.44327 17.3814L4.45995 17.3322L4.42927 17.2902C3.27837 15.7171 2.59801 13.7841 2.59801 11.6967C2.59801 6.43661 6.91067 2.15573 12.214 2.15573C17.5166 2.15573 21.83 6.43687 21.83 11.6969C21.83 16.957 17.5166 21.2376 12.214 21.2376C10.2606 21.2376 8.44185 20.6562 6.92331 19.6593L6.88351 19.6331L6.83813 19.6475L3.2931 20.7743L4.44327 17.3814Z" fill="#030303" stroke="black" stroke-width="0.2"/>
</g>
<defs>
<clipPath id="clip0_24_7725">
<rect width="24" height="24" fill="white"/>
</clipPath>
</defs>
</svg>
