<svg width="24" height="24" viewBox="0 0 24 24" fill="none" xmlns="http://www.w3.org/2000/svg">
<circle cx="12" cy="12" r="9" stroke="black" stroke-width="2"/>
<path d="M10.7828 14.0185V13.8494C10.7862 13.2694 10.8375 12.8071 10.937 12.4624C11.0397 12.1177 11.1889 11.8393 11.3844 11.6271C11.5799 11.415 11.8153 11.2228 12.0904 11.0504C12.2959 10.9179 12.4798 10.7803 12.6422 10.6378C12.8046 10.4953 12.9339 10.3378 13.03 10.1655C13.1261 9.98982 13.1742 9.79427 13.1742 9.57884C13.1742 9.35014 13.1195 9.14962 13.0101 8.97727C12.9007 8.80492 12.7532 8.67235 12.5676 8.57955C12.3853 8.48674 12.1832 8.44034 11.9611 8.44034C11.7457 8.44034 11.5418 8.4884 11.3496 8.58452C11.1574 8.67732 10.9999 8.81652 10.8773 9.00213C10.7547 9.18442 10.6884 9.41146 10.6784 9.68324H8.65002C8.6666 9.02036 8.82569 8.47348 9.1273 8.04261C9.42891 7.60843 9.82829 7.28527 10.3255 7.07315C10.8226 6.85772 11.3711 6.75 11.971 6.75C12.6306 6.75 13.2139 6.85938 13.721 7.07812C14.2281 7.29356 14.6259 7.60677 14.9142 8.01776C15.2026 8.42874 15.3468 8.92424 15.3468 9.50426C15.3468 9.89205 15.2821 10.2367 15.1529 10.5384C15.0269 10.8366 14.8496 11.1018 14.6209 11.3338C14.3922 11.5625 14.1221 11.7696 13.8105 11.9553C13.5487 12.111 13.3333 12.2734 13.1642 12.4425C12.9985 12.6115 12.8742 12.8071 12.7914 13.0291C12.7118 13.2512 12.6704 13.5246 12.6671 13.8494V14.0185H10.7828ZM11.7672 17.2003C11.4358 17.2003 11.1524 17.0843 10.9171 16.8523C10.6851 16.617 10.5707 16.3352 10.574 16.0071C10.5707 15.6823 10.6851 15.4039 10.9171 15.1719C11.1524 14.9399 11.4358 14.8239 11.7672 14.8239C12.0821 14.8239 12.3588 14.9399 12.5975 15.1719C12.8361 15.4039 12.9571 15.6823 12.9604 16.0071C12.9571 16.2259 12.8991 16.4264 12.7864 16.6087C12.677 16.7876 12.5328 16.9318 12.3539 17.0412C12.1749 17.1473 11.9793 17.2003 11.7672 17.2003Z" fill="#030303"/>
</svg>
