<svg width="24" height="24" viewBox="0 0 24 24" fill="none" xmlns="http://www.w3.org/2000/svg">
<g clip-path="url(#clip0_1443_1530)">
<path d="M18.1348 14.2859L18.1351 14.2864C18.1657 14.3373 18.1798 14.4153 18.1861 14.496C18.1928 14.5822 18.1918 14.6897 18.1811 14.8126C18.1597 15.0585 18.099 15.3719 17.9782 15.7085L17.9782 15.7086C17.8481 16.0691 17.4758 16.4065 17.0878 16.6554C16.6985 16.9052 16.2636 17.0848 15.981 17.1103L15.9721 17.0107L15.981 17.1103C15.8992 17.1177 15.8364 17.1328 15.7649 17.15C15.7289 17.1587 15.6907 17.1678 15.6468 17.1768C15.5198 17.2029 15.3711 17.2198 15.1479 17.1983C14.7079 17.1559 13.9765 16.9637 12.5356 16.4008L12.5356 16.4008C9.83927 15.3469 8.0654 12.7305 7.71113 12.208C7.68286 12.1663 7.66363 12.1379 7.65369 12.1248L18.1348 14.2859ZM18.1348 14.2859C18.0845 14.2031 17.9986 14.1457 17.9052 14.0949C17.8474 14.0634 17.7774 14.0297 17.7001 13.9926C17.6527 13.9699 17.6027 13.9459 17.5512 13.9203L17.5511 13.9202C17.4089 13.8498 16.9893 13.6444 16.5728 13.4449C16.1596 13.247 15.7404 13.0505 15.6047 13.0016L15.6047 13.0016C15.4778 12.9559 15.344 12.9112 15.214 12.9259C15.073 12.9418 14.9553 13.0234 14.8501 13.1805C14.6659 13.4553 14.1277 14.0828 13.961 14.2717L13.9609 14.2718C13.8879 14.3547 13.826 14.3893 13.7614 14.3971C13.6927 14.4054 13.6019 14.386 13.4668 14.3189L13.4668 14.3189C13.4183 14.2948 13.3532 14.2668 13.2736 14.2325C12.8728 14.0598 12.1025 13.7279 11.2104 12.9387C10.3803 12.2042 9.81805 11.2954 9.65477 11.0167L9.65469 11.0166C9.58412 10.8965 9.58773 10.8198 9.60909 10.7629C9.63411 10.6962 9.68937 10.638 9.763 10.5653L9.7631 10.5653C9.85103 10.4782 9.95415 10.3538 10.0534 10.2341C10.1017 10.1758 10.1491 10.1186 10.1934 10.0673L10.1935 10.0673C10.3234 9.91674 10.3809 9.79962 10.4525 9.65398C10.4645 9.62951 10.4769 9.60424 10.4901 9.57787M18.1348 14.2859L7.65358 12.1246L7.65322 12.1241C7.58024 12.0279 7.28759 11.642 7.01277 11.105C6.73808 10.5682 6.47673 9.87183 6.47673 9.15758C6.47673 7.82364 7.14085 7.1202 7.4388 6.80462C7.45911 6.7831 7.47771 6.7634 7.49429 6.74541L7.49436 6.74534C7.7763 6.44012 8.11196 6.36165 8.32347 6.36165C8.42157 6.36165 8.51905 6.36777 8.61021 6.37363L8.61779 6.37412C8.70729 6.37988 8.78983 6.3852 8.86645 6.3852C8.88296 6.3852 8.90088 6.38405 8.92401 6.38256L8.92527 6.38248C8.94785 6.38103 8.97454 6.37935 9.0027 6.37935C9.06005 6.37937 9.12704 6.38625 9.19814 6.4168C9.34185 6.47856 9.47358 6.62382 9.59585 6.91525L9.59586 6.91528C9.67153 7.09581 9.78124 7.36074 9.89765 7.64182C9.96283 7.79923 10.0301 7.9617 10.0947 8.11724C10.276 8.55408 10.4333 8.92947 10.4665 8.99536L10.4666 8.99549C10.5436 9.14876 10.6055 9.34922 10.4901 9.57787M10.4901 9.57787C10.4901 9.57791 10.4901 9.57795 10.4901 9.578L10.4008 9.53293M10.4901 9.57787C10.4902 9.57783 10.4902 9.57779 10.4902 9.57775L10.4008 9.53293M10.4008 9.53293C10.3871 9.56034 10.3743 9.58624 10.3621 9.611C10.2909 9.75587 10.2388 9.86163 10.1178 10.0019L7.7329 12.0637C7.58911 11.8741 6.57673 10.5392 6.57673 9.15758C6.57673 7.86366 7.21725 7.18504 7.5122 6.87254C7.53248 6.85105 7.55112 6.8313 7.56781 6.81319C7.82755 6.53201 8.13462 6.46165 8.32347 6.46165C8.42104 6.46165 8.51859 6.46794 8.61291 6.47401C8.70115 6.4797 8.78654 6.4852 8.86645 6.4852C8.88625 6.4852 8.90705 6.48386 8.92874 6.48246C9.08839 6.47219 9.29592 6.45883 9.50363 6.95393C9.57922 7.13427 9.68877 7.3988 9.80509 7.67968C10.0518 8.27552 10.3291 8.94495 10.3772 9.04041C10.4481 9.18139 10.4955 9.34538 10.4008 9.53293ZM0.134969 23.7382L0.071473 23.9255L0.25996 23.8656L6.61731 21.8454C8.27906 22.7495 10.1857 23.264 12.214 23.264C18.6511 23.264 23.8703 18.086 23.8703 11.6968C23.8703 5.30767 18.6508 0.129675 12.2142 0.129675C5.77681 0.129675 0.557335 5.30766 0.557335 11.6968C0.557335 13.8653 1.15939 15.8953 2.2057 17.6298L0.134969 23.7382ZM4.44321 17.3816L4.45989 17.3324L4.42921 17.2904C3.27831 15.7173 2.59794 13.7842 2.59794 11.6968C2.59794 6.4368 6.91061 2.15591 12.214 2.15591C17.5165 2.15591 21.8299 6.43706 21.8299 11.6971C21.8299 16.9571 17.5165 21.2378 12.214 21.2378C10.2606 21.2378 8.44179 20.6564 6.92325 19.6594L6.88345 19.6333L6.83807 19.6477L3.29304 20.7745L4.44321 17.3816Z" fill="#030303" stroke="black" stroke-width="0.2"/>
</g>
<defs>
<clipPath id="clip0_1443_1530">
<rect width="24" height="24" fill="white"/>
</clipPath>
</defs>
</svg>
